<?xml version="1.0" encoding="UTF-8" standalone="no"?>
<!-- Created with Inkscape (http://www.inkscape.org/) -->

<svg
   version="1.1"
   id="svg1"
   width="952"
   height="264"
   viewBox="0 0 952 264"
   sodipodi:docname="logo_black.svg"
   inkscape:version="1.4 (e7c3feb, 2024-10-09)"
   xmlns:inkscape="http://www.inkscape.org/namespaces/inkscape"
   xmlns:sodipodi="http://sodipodi.sourceforge.net/DTD/sodipodi-0.dtd"
   xmlns="http://www.w3.org/2000/svg"
   xmlns:svg="http://www.w3.org/2000/svg">
  <defs
     id="defs1" />
  <sodipodi:namedview
     id="namedview1"
     pagecolor="#ffffff"
     bordercolor="#000000"
     borderopacity="0.25"
     inkscape:showpageshadow="false"
     inkscape:pageopacity="0.0"
     inkscape:pagecheckerboard="0"
     inkscape:deskcolor="#d1d1d1"
     showborder="false"
     inkscape:zoom="2.6828909"
     inkscape:cx="144.99285"
     inkscape:cy="126.16987"
     inkscape:window-width="1920"
     inkscape:window-height="1066"
     inkscape:window-x="0"
     inkscape:window-y="27"
     inkscape:window-maximized="1"
     inkscape:current-layer="svg1" />
  <path
     style="fill:#000000;stroke-width:0.984447"
     d="m 290.25467,132.24918 0.25467,-46.711378 h 18.52473 18.52468 l 15.29596,22.737818 15.29598,22.73782 0.26322,-23.00672 L 358.67708,85 l 18.36269,0.268907 18.36267,0.268895 0.25469,46.711378 0.25465,46.71139 h -19.02377 -19.02378 l -15.05158,-22.49065 -15.05155,-22.49069 -0.26348,22.49069 -0.26349,22.49065 H 308.61706 290 Z m 120.34257,-0.25764 V 85.022494 l 42.39838,0.257648 42.39838,0.25766 0.272,14.087565 0.27198,14.087553 h -24.04449 -24.0445 v 2.96579 2.96583 h 22.08624 22.08626 l -0.27435,12.60464 -0.27437,12.60468 -21.81188,0.26606 -21.8119,0.26605 v 2.94689 2.94688 h 24.01759 24.01757 v 13.84043 13.8404 h -42.64346 -42.64345 z m 98.25973,38.81307 c 25.87954,-33.64571 29.32004,-38.43398 28.43855,-39.57913 -15.81356,-20.54381 -34.54921,-45.322428 -34.54921,-45.692655 0,-0.269138 9.41693,-0.489331 20.92654,-0.489331 h 20.92654 l 7.16359,10.627454 c 3.93996,5.845112 7.48144,10.994462 7.86995,11.442972 0.38852,0.44853 4.15036,-4.33383 8.35964,-10.627462 l 7.65327,-11.442964 h 20.89833 c 11.49411,0 20.89832,0.267038 20.89832,0.593428 0,0.32639 -7.95108,10.984664 -17.66908,23.685058 l -17.66908,23.09166 16.84517,22.03771 c 9.2648,12.12074 17.26991,22.59382 17.7891,23.27348 0.74828,0.97956 -3.31278,1.23574 -19.58939,1.23574 h -20.53339 l -8.1248,-11.45651 c -4.46864,-6.30109 -8.46302,-11.08345 -8.87638,-10.62746 -0.41335,0.45599 -4.14314,5.61142 -8.28843,11.45652 l -7.53689,10.62745 h -20.60287 -20.60286 z m 144.92463,5.95133 c -8.5051,-21.71313 -34.37848,-89.990111 -34.37848,-90.720955 0,-0.629757 7.13122,-0.991491 19.54687,-0.991491 h 19.54687 l 2.44423,8.155961 c 1.34432,4.485792 4.95077,16.608495 8.01436,26.939375 3.06353,10.33088 5.8087,19.18667 6.10035,19.67952 0.42338,0.71552 11.29429,-34.09191 15.94921,-51.067595 l 1.01658,-3.707261 h 19.56839 c 15.00626,0 19.5662,0.288105 19.55893,1.235758 -0.006,0.679653 -7.85026,21.699778 -17.4334,46.711388 l -17.4239,45.47565 -20.81551,0.26684 L 654.6606,179 Z m 67.979,0.49542 c 0.347,-0.963 8.40657,-22.11236 17.91018,-46.99859 l 17.27926,-45.247705 20.56888,0.266363 20.56889,0.266374 17.88662,46.711378 17.88662,46.71139 H 813.9093 793.95753 l -1.35653,-4.69583 -1.35654,-4.69588 -13.68779,-0.27318 -13.6878,-0.27319 -1.4534,4.72189 -1.45338,4.72191 -19.91622,0.26798 c -18.70397,0.25167 -19.87778,0.1614 -19.28527,-1.48291 z m 61.35418,-34.42704 c 0,-2.02335 -5.36353,-18.06554 -5.92336,-17.7166 -0.3837,0.23916 -1.18713,2.33307 -1.78538,4.65317 -0.59826,2.32009 -1.73426,6.3315 -2.52447,8.91421 l -1.43671,4.69585 h 5.83495 c 3.20924,0 5.83497,-0.24598 5.83497,-0.54663 z m 56.57718,29.95751 c 2.63985,-3.39832 10.66358,-13.86519 17.83055,-23.25971 l 13.0308,-17.08093 -2.76242,-3.67969 c -1.51934,-2.02383 -9.50281,-12.48343 -17.74106,-23.24356 -8.23825,-10.760153 -14.97866,-19.768793 -14.97866,-20.019176 0,-0.250393 9.44174,-0.45527 20.9816,-0.45527 h 20.98161 l 7.10274,10.627454 c 3.9065,5.845112 7.41411,10.985292 7.79472,11.422632 0.38061,0.43735 4.17509,-4.3435 8.43219,-10.624075 l 7.74022,-11.419275 20.83158,-0.0033 c 11.45733,-0.0022 20.83151,0.262924 20.83151,0.588374 0,0.521236 -17.28681,23.453056 -30.59442,40.584946 l -4.72392,6.08138 15.00091,19.62225 c 8.25044,10.79222 16.24948,21.29051 17.77549,23.32949 L 950,178.96062 h -20.5296 -20.52975 l -8.1248,-11.45652 c -4.46861,-6.30108 -8.46299,-11.08344 -8.87635,-10.62745 -0.41332,0.45599 -4.14315,5.61141 -8.28843,11.45652 l -7.5369,10.62745 h -20.61096 -20.61098 z"
     id="path1" />
  <path
     id="path"
     d="m 208.54344,216.21521 c 2.59863,-7.10319 5.37932,-14.22289 8.40829,-21.50759 2.69793,-1.48498 5.18068,-2.74722 7.54758,-4.1827 0.47172,-0.2805 0.69517,-1.221 0.71173,-1.85624 0.0578,-3.92696 0.0578,-7.85394 0.008,-11.78091 -0.0166,-0.84149 -0.31448,-1.68298 -0.48828,-2.51623 4.56,-11.64065 9.11173,-23.27306 13.68827,-34.90548 0.27311,-0.68474 0.80277,-1.27049 1.36552,-1.99647 0.17381,19.30483 0.21518,38.70043 0.20691,58.08778 0,3.48148 -2.79725,4.97472 -5.4207,6.42671 -8.59033,4.77671 -17.23034,9.47093 -26.02758,14.23113 z M 14.780689,90.255198 c -1.108966,3.275218 -2.110344,6.58345 -3.343448,9.809182 -3.1613782,8.23343 -6.4055165,16.42561 -9.6579304,24.6178 -0.3310348,0.84149 -0.93517223,1.59224 -1.56413803,2.47498 C 0.04137922,107.81107 0,88.374218 0,68.937378 0,65.480651 2.5903452,63.690414 5.2965517,62.18067 13.928276,57.387462 22.609655,52.676747 31.448275,47.908291 28.882758,55.027984 26.135172,62.164169 23.081379,69.440608 20.59862,70.760606 18.48,72.055854 16.237241,73.087092 c -1.257931,0.569242 -1.522759,1.30348 -1.506207,2.507973 0.0662,4.89222 0.04138,9.776182 0.04966,14.660133 z M 208.36138,216.23997 c -15.26897,8.45617 -30.53793,16.92887 -45.82344,25.36855 -12.95174,7.14444 -25.94483,14.23939 -38.90483,21.38382 -2.41655,1.32825 -4.81656,1.34475 -7.18345,0.0413 -7.5476,-4.15796 -15.0538,-8.37368 -22.593108,-12.54814 C 85.63034,245.93154 77.387587,241.41882 69.16138,236.8566 61.175171,232.43463 53.213792,227.96317 45.227585,223.54121 38.135172,219.61421 31.034482,215.70375 23.925518,211.81803 16.212413,207.61056 8.4827589,203.4361 0.60413847,199.15438 2.846897,193.42892 5.0399999,187.81072 7.2579311,182.209 11.685518,170.99736 16.096552,159.77743 20.565516,148.57403 c 4.766898,-11.96241 9.633104,-23.88356 14.38345,-35.85423 2.482757,-6.25345 5.114481,-12.48215 7.117241,-18.884097 2.052412,-6.566949 8.31724,-7.911678 13.688275,-4.925208 8.681379,4.834455 17.495176,9.421424 26.242752,14.132135 11.751732,6.31944 23.486906,12.67189 35.255176,18.96659 7.10069,3.81149 14.27586,7.50745 21.38482,11.30242 9.88138,5.27997 19.72139,10.61767 29.59449,15.89764 5.89242,3.14321 11.81794,6.22869 18.09103,9.52866 l 33.26069,-87.771058 -9.53378,-5.230454 c -1.13381,2.738981 -2.25932,5.230454 -3.21932,7.779688 -5.14759,13.670136 -10.36138,27.323774 -15.33517,41.059924 -2.40828,6.66595 -8.38344,6.7897 -13.6469,3.90223 -5.69379,-3.12674 -11.41241,-6.20396 -17.13103,-9.28943 -9.99724,-5.38723 -19.98621,-10.774448 -30,-16.136915 -5.50345,-2.945216 -11.05655,-5.807951 -16.56,-8.75318 C 104.20966,78.969318 94.286895,73.590359 84.322749,68.277403 77.45379,64.606186 70.543452,61.025714 63.657931,57.379249 58.369654,54.566015 53.09793,51.71979 47.776551,48.857063 L 0.65379314,168.39034 C 0.43862158,168.37382 0.21517257,168.36562 0,168.3491 c 0,-13.54639 0,-27.08454 0.18206979,-40.96093 0.66206858,-1.11375 1.26620601,-1.86449 1.59724081,-2.70599 3.2524139,-8.19217 6.4965522,-16.38436 9.6579304,-24.6178 1.233104,-3.225725 2.234482,-6.533958 3.517242,-9.875168 0.488275,-0.833241 0.794483,-1.600489 1.092414,-2.367728 2.366896,-6.080214 4.733792,-12.16041 7.224826,-18.38086 2.863449,-7.276439 5.611035,-14.412633 8.358621,-21.557077 C 46.576551,39.592351 61.522758,31.309424 76.460687,23.001736 89.445515,15.774794 102.43034,8.5643513 115.36552,1.2549089 c 4.32827,-2.4502343 7.96138,-0.91574203 11.72689,1.2209919 10.48551,5.9399501 21.03725,11.7726602 31.54759,17.6631102 9.02069,5.065459 18,10.188668 27.03724,15.229383 8.36689,4.669463 16.79999,9.239932 25.16689,13.909385 7.15862,3.992977 14.27587,8.060198 21.40965,12.094407 1.77932,1.006497 3.48414,2.17799 5.36276,2.969979 1.83725,0.77549 1.87863,1.889231 1.28276,3.349475 -4.11309,10.081413 -8.2593,20.138094 -12.3393,30.236013 -4.51863,11.178667 -9.00415,22.382067 -13.43999,33.601977 -5.25519,13.29066 -10.59311,26.55655 -15.59173,39.92969 -1.79587,4.80147 -7.59724,6.6742 -12.76966,3.77022 -6.62069,-3.71247 -13.29103,-7.36719 -19.98621,-10.96416 -12.26482,-6.59996 -24.55448,-13.1504 -36.85241,-19.69259 -6.86896,-3.65473 -13.79586,-7.21044 -20.65655,-10.88993 -11.371039,-6.0967 -22.684147,-12.2759 -34.063453,-18.36435 -6.239998,-3.34123 -12.546205,-6.56694 -19.266205,-10.07317 l -33.359999,88.01857 9.707586,5.0407 c 2.07724,-5.4037 4.096551,-10.56816 6.049655,-15.76563 4.295173,-11.41791 8.491034,-22.86881 12.852414,-34.25373 1.605518,-4.19096 6.372414,-6.23695 11.064826,-3.78671 5.94207,3.10196 11.86759,6.2122 17.776547,9.37192 6.943453,3.70423 13.853804,7.46619 20.780697,11.19516 9.997242,5.37896 19.994482,10.77442 30.008272,16.13688 7.92828,4.24871 15.86484,8.48093 23.80138,12.69665 11.32965,6.02245 22.65931,12.0284 33.98897,18.04261 1.80414,0.95698 3.60826,1.93048 5.88413,3.14322 15.68277,-39.83894 31.29931,-79.49637 46.91587,-119.15381 0.19862,0.0165 0.39723,0.04121 0.59586,0.06601 0,13.63713 0,27.27428 -0.18207,41.24142 -0.59587,0.95699 -1.12552,1.54273 -1.39862,2.22748 -4.57656,11.63241 -9.12828,23.26482 -13.70483,35.09522 -2.64,6.78145 -5.27172,13.3649 -7.9531,20.12984 -2.83862,7.3012 -5.61931,14.42089 -8.4,21.54885 M 123.40966,17.185529 c -1.3738,-0.371251 -3.07862,-1.427242 -4.05518,-0.989993 -3.82345,1.707735 -7.41517,3.885717 -11.08965,5.898701 -7.33242,4.034217 -14.681383,8.051933 -21.997246,12.119158 -5.569649,3.093724 -11.097927,6.245201 -16.907588,9.520431 L 179.77655,102.72086 C 185.4869,87.60697 191.0731,72.806592 196.70896,57.89071 172.23724,44.336069 147.96414,30.888671 123.40966,17.185529 M 61.787585,161.98014 c -1.828965,-1.6335 -1.837241,0.53624 -2.068965,1.12199 -1.257931,3.15148 -2.234482,6.4102 -3.434483,9.57818 -3.972414,10.48566 -7.986207,20.95482 -12.033104,31.4075 -0.488275,1.27049 -0.612413,1.99647 0.885518,2.79672 6.926896,3.72898 13.746207,7.61469 20.623449,11.42617 7.332412,4.06722 14.689661,8.09319 22.022075,12.16865 10.311704,5.72547 20.598625,11.5004 30.951715,17.16811 0.71173,0.38776 2.06896,0.297 2.82206,-0.099 5.13104,-2.72248 10.17932,-5.58521 15.2607,-8.39843 7.39863,-4.10022 14.80551,-8.17569 22.19587,-12.28416 3.94758,-2.18622 7.86206,-4.41372 11.95034,-6.7072 -7.10069,-3.74547 -14.01103,-7.35069 -20.88,-11.01366 -11.97518,-6.39369 -23.92553,-12.8369 -35.90069,-19.2306 -6.72,-3.58873 -13.48138,-7.09493 -20.201382,-10.68367 -10.626211,-5.67595 -21.235865,-11.3849 -32.193103,-17.25061 z"
     fill="#8c8c8c"
     stroke-width="8.26295"
     style="fill:#6352cd;fill-opacity:1" />
</svg>
